# xmcd
#
# Track frame offsets:
#	150
#	16243
#	35826
#	52078
#	64921
#	77677
#	98306
#	115902
#	132062
#	145045
#
# Disc length: 2163 seconds
#
# Revision: 15
# Processed by: cddbd v1.5.2PL0 Copyright (c) Steve Scherf et al.
# Submitted via: Jack! The Knife 20 Magnifico
#
DISCID=7e08710a
DTITLE=Queen - The Game
DYEAR=1980
DGENRE=Rock
TTITLE0=Play The Game
TTITLE1=Dragon Attack
TTITLE2=Another One Bites The Dust
TTITLE3=Need Your Loving Tonight
TTITLE4=Crazy Little Thing Called Love
TTITLE5=Rock It (Prime Jive)
TTITLE6=Don't Try Suicide
TTITLE7=Sail Away Sweet Sister
TTITLE8=Coming Soon
TTITLE9=Save Me
EXTD=Queen and Reinhold Mack
EXTT0=Freddie Mercury
EXTT1=Brian May
EXTT2=John Deacon
EXTT3=John Deacon
EXTT4=Freddie Mercury
EXTT5=Roger Taylor
EXTT6=Freddie Mercury
EXTT7=Brian May
EXTT8=Roger Taylor
EXTT9=Brian May
PLAYORDER=
